<?xml version="1.0" encoding="UTF-8"?>
<svg version="1.1" xmlns="http://www.w3.org/2000/svg" width="64" height="64">
<path d="M0 0 C10.97584403 -0.71972748 19.01863795 2.60748102 27.41796875 9.609375 C27.94003906 10.06828125 28.46210938 10.5271875 29 11 C31.96404628 9.60789736 34.52782057 7.96642353 37.1875 6.0625 C44.65977569 1.06060023 51.07147296 -0.42516795 60 0 C60 4.62 60 9.24 60 14 C58.535625 14.20625 57.07125 14.4125 55.5625 14.625 C49.8118297 15.76204576 45.45707686 18.22493275 41 22 C40.34 22.99 39.68 23.98 39 25 C45.38333489 30.99529022 51.10864527 34.09271891 60 35 C60 39.62 60 44.24 60 49 C49.02415597 49.71972748 40.98136205 46.39251898 32.58203125 39.390625 C31.79892578 38.70226563 31.79892578 38.70226563 31 38 C28.03595372 39.39210264 25.47217943 41.03357647 22.8125 42.9375 C15.34022431 47.93939977 8.92852704 49.42516795 0 49 C0 44.38 0 39.76 0 35 C1.464375 34.79375 2.92875 34.5875 4.4375 34.375 C10.1881703 33.23795424 14.54292314 30.77506725 19 27 C19.66 26.01 20.32 25.02 21 24 C14.61666511 18.00470978 8.89135473 14.90728109 0 14 C0 9.38 0 4.76 0 0 Z " fill="#0047FF" transform="translate(2,8)"/>
</svg>
