<!DOCTYPE svg PUBLIC "-//W3C//DTD SVG 1.1//EN" "http://www.w3.org/Graphics/SVG/1.1/DTD/svg11.dtd">
<!-- Uploaded to: SVG Repo, www.svgrepo.com, Transformed by: SVG Repo Mixer Tools -->
<svg version="1.1" id="Uploaded to svgrepo.com" xmlns="http://www.w3.org/2000/svg" xmlns:xlink="http://www.w3.org/1999/xlink" width="800px" height="800px" viewBox="0 0 32 32" xml:space="preserve" fill="#ffffff">
<g id="SVGRepo_bgCarrier" stroke-width="0"/>
<g id="SVGRepo_tracerCarrier" stroke-linecap="round" stroke-linejoin="round"/>
<g id="SVGRepo_iconCarrier"> <style type="text/css"> .bentblocks_een{fill:#ffffff;} </style> <path class="bentblocks_een" d="M23,9H13V5l-8,5l8,5v-4h10c0.552,0,1,0.448,1,1v13c0,0.552-0.448,1-1,1H10c-0.552,0-1-0.448-1-1V15 H7v10c0,1.654,1.346,3,3,3h13c1.654,0,3-1.346,3-3V12C26,10.346,24.654,9,23,9z M11,11.391L8.774,10L11,8.609V11.391z"/> </g>
</svg>