<!DOCTYPE svg PUBLIC "-//W3C//DTD SVG 1.1//EN" "http://www.w3.org/Graphics/SVG/1.1/DTD/svg11.dtd">
<!-- Uploaded to: SVG Repo, www.svgrepo.com, Transformed by: SVG Repo Mixer Tools -->
<svg fill="#ffffff" height="800px" width="800px" version="1.1" id="Capa_1" xmlns="http://www.w3.org/2000/svg" xmlns:xlink="http://www.w3.org/1999/xlink" viewBox="0 0 27.971 27.971" xml:space="preserve" stroke="#ffffff">
<g id="SVGRepo_bgCarrier" stroke-width="0"/>
<g id="SVGRepo_tracerCarrier" stroke-linecap="round" stroke-linejoin="round"/>
<g id="SVGRepo_iconCarrier"> <g> <g id="c189_arrow"> <path d="M23.92,14.746l-4.05-4.051h2.374l-0.068-0.177c-1.407-3.561-4.882-6.088-8.95-6.088c-5.312,0-9.62,4.307-9.62,9.616 c0,5.316,4.308,9.623,9.62,9.623c3.907,0,7.271-2.128,8.775-5.479l3.854,0.039c-0.013,0.03-3.032,8.918-12.693,8.918 C5.893,27.148,0,21.254,0,13.987C0,6.715,5.893,0.824,13.161,0.824c6.08,0,11.195,4.116,12.709,9.715l0.032,0.156h2.069 L23.92,14.746z"/> </g> <g id="Capa_1_105_"> </g> </g> </g>
</svg>